/vscmnt/brussel_pixiu_data/_data_brussel/112/vsc11236/PredSimResults/SUBJ06mtu3D/weighted-expIG/worker_05.mot
version=1
nRows=5
nColumns=50
inDegrees=yes
endheader
                time	         pelvis_tilt	         pelvis_list	     pelvis_rotation	           pelvis_tx	           pelvis_ty	           pelvis_tz	       hip_flexion_r	     hip_adduction_r	      hip_rotation_r	        knee_angle_r	       ankle_angle_r	         mtp_angle_r	       hip_flexion_l	     hip_adduction_l	      hip_rotation_l	        knee_angle_l	       ankle_angle_l	         mtp_angle_l	    lumbar_extension	      lumbar_bending	     lumbar_rotation	 ercspn_r/activation	 intobl_r/activation	 extobl_r/activation	    abd_r/activation	    add_r/activation	hamstrings_r/activation	bifemsh_r/activation	glut_max_r/activation	iliopsoas_r/activation	rect_fem_r/activation	  vasti_r/activation	gastroc_r/activation	 soleus_r/activation	tib_ant_r/activation	 ercspn_l/activation	 intobl_l/activation	 extobl_l/activation	    abd_l/activation	    add_l/activation	hamstrings_l/activation	bifemsh_l/activation	glut_max_l/activation	iliopsoas_l/activation	rect_fem_l/activation	  vasti_l/activation	gastroc_l/activation	 soleus_l/activation	tib_ant_l/activation	
          0.69280834	         -7.49305777	          5.07494476	        -11.03606070	          0.68588025	          0.93220708	          0.02111838	         -8.11323063	         -4.92588426	         10.13562011	         -8.13166134	         10.40049486	         29.55905837	         28.56578415	          0.50553671	         -6.17372506	          1.02080264	          5.91160426	          0.21074049	         -1.44858149	         -2.75098591	          2.46163582	          0.05716005	          0.00999999	          0.00999999	          0.06992866	          0.00999999	          0.01565688	          0.13279612	          0.07942410	          0.40213528	          0.00999999	          0.00999999	          0.34784440	          0.34979774	          0.01348798	          0.09260919	          0.17766086	          0.02295840	          0.01088120	          0.10547191	          0.04848138	          0.17493463	          0.00999999	          0.07936689	          0.00999999	          0.00999999	          0.01008753	          0.00999999	          0.27875547	
          0.70666450	         -7.62393078	          4.98355249	        -11.05677219	          0.70277862	          0.92993384	          0.02030539	         -8.52059005	         -4.92171085	          9.61117113	         -9.07878900	          9.83630544	         31.33867594	         28.63921112	          0.67143298	         -5.79035026	         -0.45794742	          5.42294548	          0.21031264	         -1.12381790	         -3.04431098	          2.63219389	          0.08687399	          0.00999999	          0.00999999	          0.05680933	          0.03921799	          0.01271949	          0.10788222	          0.06452333	          0.40242533	          0.00999999	          0.00999999	          0.32471851	          0.33306556	          0.01095750	          0.07523476	          0.14511532	          0.01865117	          0.00999999	          0.15082184	          0.04750158	          0.14211512	          0.04134115	          0.06447686	          0.00999999	          0.00999999	          0.02295840	          0.01761869	          0.28995885	
          0.72052067	         -7.73194753	          4.87800255	        -11.01112994	          0.72017836	          0.92791241	          0.01940994	         -8.84221641	         -4.88506611	          9.05153430	        -10.28113369	          9.11390580	         33.17785180	         28.50603660	          0.82084846	         -5.39289134	         -1.83703406	          4.90075078	          0.19634251	         -0.77553838	         -3.33850944	          2.78389818	          0.09091266	          0.00999999	          0.00999999	          0.04615132	          0.03880352	          0.01089288	          0.08764242	          0.05241810	          0.37983827	          0.00999999	          0.00999999	          0.29732891	          0.30828815	          0.00999999	          0.06711360	          0.11789022	          0.01515202	          0.04320389	          0.12252613	          0.05330818	          0.12021414	          0.07178007	          0.05238034	          0.00999999	          0.00999999	          0.01865117	          0.01431324	          0.34203434	
          0.73437684	         -7.81970351	          4.75655900	        -10.90034562	          0.73781753	          0.92638478	          0.01840174	         -8.98797797	         -4.80578898	          8.47007547	        -11.84716864	          8.16853339	         35.07608116	         28.17262119	          0.98447589	         -5.06200776	         -2.88740026	          4.23687431	          0.17187729	         -0.43035402	         -3.62744260	          2.90825511	          0.11383759	          0.00999999	          0.00999999	          0.03749287	          0.04066531	          0.02091767	          0.07119981	          0.04258393	          0.36915596	          0.01000000	          0.01515202	          0.25316725	          0.27985671	          0.00999999	          0.07663837	          0.09577281	          0.01230935	          0.08810782	          0.11913656	          0.05692435	          0.09766075	          0.10231608	          0.04255326	          0.00999999	          0.00999999	          0.01515202	          0.01162793	          0.37765191	
          0.74823300	         -7.88726998	          4.62068737	        -10.72886348	          0.75545531	          0.92553591	          0.01730766	         -8.89306084	         -4.67802572	          7.85931760	        -13.84782614	          6.96267746	         36.96581624	         27.71713387	          1.16069882	         -4.79306953	         -3.79245470	          3.73066060	          0.14427234	         -0.10819169	         -3.91636938	          2.99885899	          0.13648721	          0.00999999	          0.00999999	          0.03045882	          0.05896485	          0.02830226	          0.05784201	          0.03459476	          0.35031640	          0.00999999	          0.01230935	          0.20567050	          0.22844637	          0.00999999	          0.07261102	          0.07780486	          0.00999999	          0.12260878	          0.12909777	          0.05695750	          0.07933860	          0.12169342	          0.03456984	          0.00999999	          0.00999999	          0.01230935	          0.00999999	          0.39996601	
